<svg width="936" height="585" viewBox="0 0 936 585" fill="none" xmlns="http://www.w3.org/2000/svg">
<path fill-rule="evenodd" clip-rule="evenodd" d="M788.225 148.334C787.692 147.946 786.426 147.809 785.838 147.692C783.39 147.21 780.869 147 778.374 147C770.681 147.012 762.863 147.767 755.298 149.074C750.494 149.903 744.687 152.696 739.909 151.179C731.585 148.537 723.172 148.667 715.274 152.439C708.053 155.888 702.572 162.439 699.373 169.517C698.89 170.586 696.932 174.519 696.378 177.17C696.141 177.712 695.913 178.257 695.708 178.811C695.126 180.384 694.603 181.984 694.118 183.588C693.91 184.272 693.389 185.782 694.008 186.074C693.019 187.901 692.141 189.783 691.411 191.726C689.286 197.378 686.962 203.578 686.215 209.568C685.939 211.786 685.928 214.017 686.185 216.239C686.312 217.338 686.26 219.546 687.004 220.382C688.585 222.154 689.396 219.673 689.218 218.491C687.858 209.485 690.485 201.027 693.598 192.561C695.612 187.087 698.92 182.078 702.626 177.543C705.625 173.871 708.842 170.98 712.953 168.546C717.981 165.569 723.356 163.163 728.681 160.749C732.184 159.161 735.691 157.615 739.291 156.247C740.092 155.942 741.351 155.161 742.239 155.158C744.116 155.152 746.777 156.537 748.59 157.052C754.554 158.748 760.594 160.919 766.758 161.785C770.712 162.341 774.416 161.715 778.113 160.398C778.491 160.264 779.125 159.918 779.901 159.424C782.646 158.368 785.243 157.039 787.504 155.121C788.806 154.017 789.989 152.589 791.067 151.282C791.389 150.892 791.532 150.444 791.537 150.018C791.781 149.891 791.943 149.741 791.98 149.567C792.249 148.281 789.796 148.258 788.225 148.334" fill="#89C5CC"/>
<path fill-rule="evenodd" clip-rule="evenodd" d="M163.273 255.541C161.764 256.763 160.284 258.011 158.84 259.31C157.739 260.3 155.791 261.485 155.396 262.985C154.985 264.544 156.282 266.003 157.306 266.945C162.723 271.929 168.823 275.298 176.329 275.859C187.887 276.722 197.946 273.77 207.974 267.963C215.018 263.883 219.684 257.849 220.703 249.701C229.092 253.187 237.205 257.993 244.1 263.891C247.502 266.801 250.432 270.025 253.142 273.599C254.878 275.889 256.557 278.215 258.115 280.631C258.792 281.68 259.481 283.542 260.599 284.146C261.912 284.856 263.499 283.743 263.434 282.284C263.379 281.069 262.068 279.66 261.454 278.667C260.436 277.018 259.402 275.379 258.313 273.776C256.551 271.179 254.73 268.62 252.744 266.19C248.281 260.73 242.601 256.221 236.714 252.375C225.42 244.997 213.025 240.349 199.283 239.955C190.833 239.713 183.725 242.6 176.499 246.911C172 249.595 167.356 252.235 163.273 255.541" fill="#DDE3E9"/>
<path fill-rule="evenodd" clip-rule="evenodd" d="M272.883 219.856C264.077 210.787 255.241 201.832 245.403 193.847C239.605 189.141 233.495 184.863 227.511 180.401C228.201 181.006 228.878 181.628 229.539 182.266C227.671 180.998 225.226 180.281 223.246 179.107C221.037 177.798 218.925 176.301 216.854 174.791C212.811 171.845 208.829 168.843 204.673 166.051C200.043 162.94 195.245 160.066 190.536 157.072C186.539 154.532 182.494 151.751 178.218 149.674C175.888 148.542 173.553 147.201 171.213 146.02C170.43 145.625 162.484 140.608 162.504 140.593C162.943 140.262 166.942 142.14 167.56 142.393C169.366 143.131 171.094 144.013 172.83 144.893C171.877 143.013 171.123 141.038 170.712 138.958C170.585 138.317 169.569 133.644 170.089 133.252C170.348 133.057 172.883 141.416 173.013 142.22C173.119 142.872 173.103 143.812 173.317 144.431C173.662 145.429 173.645 145.127 174.405 145.69C175.798 146.721 177.647 147.365 179.154 148.227C179.968 148.68 182.485 150.48 184.001 150.993C188.588 153.221 193.238 156.649 197.597 159.495C196.453 157.345 195.582 155.097 194.948 152.741C194.797 152.182 193.167 147.165 193.563 146.867C194.008 146.532 197.112 154.195 197.296 154.92C197.637 156.268 197.708 157.768 198.136 159.079C198.605 160.518 200.07 161.028 201.39 161.867C206.247 164.953 210.938 168.232 215.55 171.662C220.583 162.711 214.78 151.903 209.89 144.393C206.364 138.98 201.619 134.34 196.608 130.289C189.92 124.882 182.269 120.563 174.627 116.612C165.723 112.009 156.099 109.156 146.093 107.839C140.86 107.149 135.507 107.169 130.221 107.39C127.639 107.498 125.16 107.84 122.686 108.682C121.57 109.062 120.492 109.541 119.442 110.077C118.644 110.484 116.713 110.914 116.255 111.521C112.477 116.438 110.545 121.337 110.84 127.515C111.119 133.363 112.966 139.214 115.472 144.431C118.264 150.24 121.854 155.512 126.55 159.936C130.132 163.312 134.137 166.25 138.116 169.15C152.267 179.463 170.208 188.433 188.536 186.128C194.469 185.383 200.112 183.308 205.385 180.489C206.628 179.824 207.863 179.152 209.036 178.368C209.827 177.839 211.941 175.456 212.736 175.37C213.827 175.251 216.175 177.469 217.198 178.144C224.972 183.275 232.542 188.685 239.953 194.313C247.839 200.301 255.337 206.697 262.615 213.393C265.71 216.242 268.786 219.096 271.791 222.04C272.491 222.725 274.202 225.247 275.471 225.361C276.273 225.434 276.814 224.749 276.7 224.006C276.501 222.715 273.785 220.784 272.883 219.856" fill="#C1DEE2"/>
<path fill-rule="evenodd" clip-rule="evenodd" d="M778.98 184.66C775.57 183.915 771.803 183.972 768.329 184.033C749.695 184.287 731.397 193.109 719.489 207.205C709.351 219.205 706.563 234.125 704.56 249.207C704.362 250.704 704.277 252.192 704.165 253.693C704.141 254.015 704.105 254.302 704.066 254.573C703.279 255.277 702.865 256.098 703.332 257C701.597 260.797 700.129 264.69 698.869 268.706C695.162 280.526 691.392 292.571 693.714 305C694.257 298.16 695.399 291.166 696.764 284.438C696.842 284.052 696.927 283.669 697.015 283.287C697.025 283.247 697.033 283.206 697.042 283.166C697.525 281.106 698.153 279.108 698.917 277.141C698.925 277.119 698.933 277.098 698.941 277.077C699.042 276.818 699.149 276.56 699.255 276.303C699.474 275.77 699.699 275.238 699.937 274.709C700.018 274.528 700.095 274.346 700.17 274.163C701.282 271.437 701.751 268.365 702.748 265.545C702.986 264.904 703.235 264.265 703.496 263.629C703.512 263.592 703.527 263.555 703.543 263.518C704.249 261.807 705.028 260.118 705.853 258.446C706.301 258.11 706.54 257.274 706.927 256.515C707.006 256.365 707.631 255.368 707.817 254.793C708.303 253.854 708.786 252.915 709.275 251.977C709.261 251.983 709.246 251.988 709.231 251.994C709.72 251.093 710.211 250.197 710.698 249.304C710.805 249.108 710.913 248.912 711.021 248.715C711.196 248.402 711.371 248.089 711.545 247.777C713.177 244.856 714.908 241.994 716.705 239.167C717.347 238.158 718.879 236.711 719.173 235.579C719.184 235.536 719.186 235.497 719.193 235.457C723.093 229.979 727.582 224.927 732.967 220.924C732.316 221.628 730.932 224.015 730.567 224.488C729.447 225.935 728.232 227.282 727.013 228.646C724.828 231.089 722.696 233.609 720.801 236.274C717.335 241.148 714.346 246.277 711.519 251.51C711.493 251.54 711.463 251.569 711.438 251.601C710.017 253.352 709.123 255.998 708.101 258.001C712.147 256.127 716.622 254.906 720.774 253.242C724.916 251.583 728.944 249.735 732.834 247.566C738.003 244.682 743.366 241.427 748.25 237.743C753.847 234.271 758.551 229.492 762.703 224.477C767.615 218.543 772.117 212.558 774.901 205.353C776.269 201.813 777.345 198.121 777.983 194.386C778.011 194.224 778.046 194.047 778.085 193.864C778.738 192.574 779.321 191.255 779.811 189.906C780.588 187.766 782.425 185.412 778.98 184.66" fill="#69A1AC"/>
<path fill-rule="evenodd" clip-rule="evenodd" d="M130.292 220.862C128.94 219.867 127.422 218.969 125.64 218.328C125.189 218.166 121.833 217.082 121.614 217.32C121.105 217.874 129.886 220.545 130.292 220.862M146.205 214.213C146.194 214.255 147.358 215.598 147.675 216.011C148.35 216.889 148.972 217.785 149.558 218.681C148.691 217.097 147.8 215.628 146.205 214.213M64.8182 225.147C63.6973 225.392 62.3496 224.424 63.8035 224.186C64.98 223.995 64.9223 223.95 65.4505 223.305C65.8794 222.782 66.1437 222.143 66.5201 221.594C67.3185 220.429 68.2241 219.318 69.3358 218.277C71.7182 216.046 74.621 214.123 77.8768 212.503C83.5586 209.675 89.9294 207.09 96.6873 205.792C107.433 203.727 119.662 203.6 130.424 205.031C137.089 205.918 143.181 207.459 147.606 211.109C149.819 212.933 151.555 215.07 152.314 217.423C152.512 218.038 152.475 218.722 152.723 219.324C153.104 220.25 152.936 220.004 154.528 220.184C156.267 220.381 158.004 220.581 159.74 220.786C164.287 221.321 168.861 221.889 173.291 222.757C174.75 223.042 176.176 223.391 177.569 223.797C178.623 224.103 182.818 225.066 183.328 225.997C184.177 227.546 181.333 226.844 180.45 226.506C179.676 226.211 178.881 225.935 178.075 225.681C176.045 225.042 173.93 224.548 171.767 224.155C169.43 223.73 167.045 223.412 164.67 223.094C162.454 222.798 160.23 222.529 158.003 222.271C156.767 222.128 155.528 221.989 154.29 221.85C153.868 221.802 153.122 221.553 153.178 221.927C150.575 221.586 147.76 221.635 145.109 221.541C141.862 221.426 138.602 221.331 135.344 221.401C132.994 221.45 130.642 221.555 128.304 221.77C126.938 221.896 125.594 222.079 124.253 222.312C123.517 222.439 120.614 222.71 120.213 223.147C120.385 222.959 123.589 223.141 123.997 223.13C125.628 223.089 127.247 222.979 128.872 222.855C131.888 222.626 134.906 222.507 137.931 222.524C137.92 222.885 135.853 223.529 135.349 223.768C134.217 224.305 133.134 224.891 132.123 225.533C130.343 226.664 128.211 228.066 126.979 229.407C127.342 229.011 129.133 228.497 129.768 228.196C130.786 227.712 131.783 227.196 132.727 226.644C133.598 226.135 134.411 225.585 135.21 225.023C136.009 224.461 137.094 223.292 138.144 222.917C138.208 222.895 138.666 223.141 138.926 223.057C139.188 222.973 139.515 222.551 139.581 222.534C140.559 222.278 142.415 222.597 143.443 222.629C146.109 222.713 148.772 222.822 151.435 222.922C152.26 222.953 152.962 222.825 153.273 223.239C153.605 223.68 152.997 224.841 152.824 225.322C152.182 227.108 151.041 228.71 149.245 230.093C145.883 232.685 141.736 234.413 137.052 235.569C119.111 239.996 100.023 241.769 82.0874 237.164C74.662 235.257 63.4792 231.85 64.8182 225.147" fill="#89C5CC"/>
<g opacity="0.6" clip-path="url(#clip0_4_2929)">
<path fill-rule="evenodd" clip-rule="evenodd" d="M885.965 433.719C898.165 489.917 602.277 526.573 347.6 500.992C92.9222 475.41 -23.9118 375.513 97.6161 322.283C219.144 269.054 873.764 377.522 885.965 433.719Z" fill="#DDE3E9"/>
</g>
<g clip-path="url(#clip1_4_2929)">
<rect x="236" y="29" width="159" height="302" rx="8" fill="#F2F2F2"/>
<path fill-rule="evenodd" clip-rule="evenodd" d="M315 312C323.284 312 330 305.284 330 297C330 288.716 323.284 282 315 282C306.716 282 300 288.716 300 297C300 305.284 306.716 312 315 312Z" fill="white"/>
<path fill-rule="evenodd" clip-rule="evenodd" d="M302 49C303.105 49 304 48.1046 304 47C304 45.8954 303.105 45 302 45C300.895 45 300 45.8954 300 47C300 48.1046 300.895 49 302 49Z" fill="white"/>
<rect x="309" y="45" width="21" height="4" rx="2" fill="white"/>
<g clip-path="url(#clip2_4_2929)">
<g clip-path="url(#clip3_4_2929)">
<rect x="250" y="57" width="131" height="54" rx="4" fill="white"/>
<g clip-path="url(#clip4_4_2929)">
<rect x="289" y="73.2" width="73" height="8.1" rx="3" fill="#DDE3E9"/>
<rect x="289" y="86.7" width="49" height="8.1" rx="3" fill="#DDE3E9"/>
</g>
<path fill-rule="evenodd" clip-rule="evenodd" d="M271 96C277.627 96 283 90.6274 283 84C283 77.3726 277.627 72 271 72C264.373 72 259 77.3726 259 84C259 90.6274 264.373 96 271 96Z" fill="#C5CFD6"/>
</g>
<g clip-path="url(#clip5_4_2929)">
<rect x="250" y="119" width="131" height="42" rx="4" fill="white"/>
<g clip-path="url(#clip6_4_2929)">
<rect x="289" y="131.6" width="73" height="6.3" rx="3" fill="#DDE3E9"/>
<rect x="289" y="142.1" width="49" height="6.3" rx="3" fill="#DDE3E9"/>
</g>
<path fill-rule="evenodd" clip-rule="evenodd" d="M271 152C277.627 152 283 146.627 283 140C283 133.373 277.627 128 271 128C264.373 128 259 133.373 259 140C259 146.627 264.373 152 271 152Z" fill="#C5CFD6"/>
</g>
<g clip-path="url(#clip7_4_2929)">
<rect x="250" y="169" width="131" height="42" rx="4" fill="white"/>
<g clip-path="url(#clip8_4_2929)">
<rect x="289" y="181.6" width="73" height="6.3" rx="3" fill="#DDE3E9"/>
<rect x="289" y="192.1" width="49" height="6.3" rx="3" fill="#DDE3E9"/>
</g>
<path fill-rule="evenodd" clip-rule="evenodd" d="M271 202C277.627 202 283 196.627 283 190C283 183.373 277.627 178 271 178C264.373 178 259 183.373 259 190C259 196.627 264.373 202 271 202Z" fill="#AFB9C5"/>
</g>
<g clip-path="url(#clip9_4_2929)">
<rect x="250" y="219" width="131" height="42" rx="4" fill="white"/>
<g clip-path="url(#clip10_4_2929)">
<rect x="289" y="231.6" width="73" height="6.3" rx="3" fill="#DDE3E9"/>
<rect x="289" y="242.1" width="49" height="6.3" rx="3" fill="#DDE3E9"/>
</g>
<path fill-rule="evenodd" clip-rule="evenodd" d="M271 252C277.627 252 283 246.627 283 240C283 233.373 277.627 228 271 228C264.373 228 259 233.373 259 240C259 246.627 264.373 252 271 252Z" fill="#C5CFD6"/>
</g>
</g>
</g>
<g clip-path="url(#clip11_4_2929)">
<path fill-rule="evenodd" clip-rule="evenodd" d="M266.14 273C264.815 273 263.494 273.027 262.171 273.095C261.162 273.148 259.621 272.939 258.768 273.568C257.881 274.221 257.942 275.557 258.081 276.501C258.813 281.493 260.6 285.919 264.339 289.456C270.096 294.901 276.695 297.668 284.504 298.9C289.99 299.766 295.054 298.564 299.092 294.663C302.043 300.139 304.281 306.199 305.404 312.315C305.958 315.333 306.127 318.315 306.03 321.388C305.967 323.356 305.859 325.32 305.648 327.279C305.556 328.13 305.122 329.418 305.455 330.223C305.846 331.167 307.165 331.259 307.757 330.453C308.25 329.783 308.16 328.466 308.261 327.673C308.429 326.355 308.584 325.036 308.695 323.712C308.876 321.569 309.009 319.42 309 317.268C308.977 312.435 307.902 307.583 306.432 302.995C303.612 294.192 299.037 286.369 291.921 280.231C287.545 276.457 282.537 274.929 276.856 274.108C273.318 273.597 269.723 273 266.14 273" fill="#89C5CC"/>
<path fill-rule="evenodd" clip-rule="evenodd" d="M286.571 308C272.272 308 262.642 319.524 258.089 331.502C256.372 336.016 255.97 340.974 255.308 345.714C255.096 347.236 255.175 349.554 254.557 350.909C254.333 351.401 253.819 351.577 254.065 352.247C254.214 352.652 254.505 352.901 254.944 352.981C255.843 353.147 257.115 352.167 257.886 351.781C264.282 348.573 268.484 343.613 271.912 337.545C274.038 333.784 276.194 329.879 277.456 325.75C278.227 323.227 278.676 320.571 278.94 317.954C279.044 316.923 279.144 315.868 279.138 314.832C279.132 313.803 278.653 313.259 278.309 312.364C283.08 310.558 288.466 310.066 293.299 311.937C297.769 313.668 301.482 317.013 303.561 321.216C304.101 322.308 304.518 323.46 304.821 324.636C305.02 325.406 305.029 326.404 305.398 327.1C306.29 328.788 308.168 327.66 307.988 326.089C307.485 321.708 304.979 317.309 301.775 314.263C297.734 310.421 292.258 308 286.571 308" fill="#89C5CC"/>
<rect x="302" y="55" width="159" height="302" rx="8" fill="#DDE3E9"/>
<path fill-rule="evenodd" clip-rule="evenodd" d="M381 338C389.284 338 396 331.284 396 323C396 314.716 389.284 308 381 308C372.716 308 366 314.716 366 323C366 331.284 372.716 338 381 338Z" fill="white"/>
<path fill-rule="evenodd" clip-rule="evenodd" d="M368 75C369.105 75 370 74.1046 370 73C370 71.8954 369.105 71 368 71C366.895 71 366 71.8954 366 73C366 74.1046 366.895 75 368 75Z" fill="white"/>
<rect x="375" y="71" width="21" height="4" rx="2" fill="white"/>
<g clip-path="url(#clip12_4_2929)">
<g clip-path="url(#clip13_4_2929)">
<rect x="316" y="83" width="131" height="54" rx="4" fill="white"/>
<g clip-path="url(#clip14_4_2929)">
<rect x="325" y="99.2" width="73" height="8.1" rx="3" fill="#DDE3E9"/>
<rect x="325" y="112.7" width="49" height="8.1" rx="3" fill="#DDE3E9"/>
</g>
<path fill-rule="evenodd" clip-rule="evenodd" d="M433 117C436.866 117 440 113.866 440 110C440 106.134 436.866 103 433 103C429.134 103 426 106.134 426 110C426 113.866 429.134 117 433 117Z" fill="#DDE3E9"/>
<path fill-rule="evenodd" clip-rule="evenodd" d="M433 113C434.657 113 436 111.657 436 110C436 108.343 434.657 107 433 107C431.343 107 430 108.343 430 110C430 111.657 431.343 113 433 113Z" fill="#F2F2F2"/>
</g>
<g clip-path="url(#clip15_4_2929)">
<rect x="316" y="145" width="131" height="42" rx="4" fill="white"/>
<g clip-path="url(#clip16_4_2929)">
<rect x="355" y="157.6" width="73" height="6.3" rx="3" fill="#DDE3E9"/>
<rect x="355" y="168.1" width="49" height="6.3" rx="3" fill="#DDE3E9"/>
</g>
<path fill-rule="evenodd" clip-rule="evenodd" d="M337 178C343.627 178 349 172.627 349 166C349 159.373 343.627 154 337 154C330.373 154 325 159.373 325 166C325 172.627 330.373 178 337 178Z" fill="#C5CFD6"/>
</g>
<g clip-path="url(#clip17_4_2929)">
<rect x="316" y="195" width="131" height="42" rx="4" fill="white"/>
<g clip-path="url(#clip18_4_2929)">
<rect x="325" y="207.6" width="73" height="6.3" rx="3" fill="#DDE3E9"/>
<rect x="325" y="218.1" width="49" height="6.3" rx="3" fill="#AFB9C5"/>
</g>
<path fill-rule="evenodd" clip-rule="evenodd" d="M433 223C436.866 223 440 219.866 440 216C440 212.134 436.866 209 433 209C429.134 209 426 212.134 426 216C426 219.866 429.134 223 433 223Z" fill="#DDE3E9"/>
<path fill-rule="evenodd" clip-rule="evenodd" d="M433 219C434.657 219 436 217.657 436 216C436 214.343 434.657 213 433 213C431.343 213 430 214.343 430 216C430 217.657 431.343 219 433 219Z" fill="#F2F2F2"/>
</g>
<g clip-path="url(#clip19_4_2929)">
<rect x="316" y="245" width="131" height="42" rx="4" fill="white"/>
<g clip-path="url(#clip20_4_2929)">
<rect x="355" y="257.6" width="73" height="6.3" rx="3" fill="#DDE3E9"/>
<rect x="355" y="268.1" width="49" height="6.3" rx="3" fill="#DDE3E9"/>
</g>
<path fill-rule="evenodd" clip-rule="evenodd" d="M337 278C343.627 278 349 272.627 349 266C349 259.373 343.627 254 337 254C330.373 254 325 259.373 325 266C325 272.627 330.373 278 337 278Z" fill="#C5CFD6"/>
</g>
</g>
</g>
<g clip-path="url(#clip21_4_2929)">
<rect x="368" y="80" width="335" height="346" rx="8" fill="#F2F2F2"/>
<rect x="617" y="123" width="70" height="81" rx="8" fill="white"/>
<path fill-rule="evenodd" clip-rule="evenodd" d="M652 170C660.837 170 668 162.837 668 154C668 145.163 660.837 138 652 138C643.163 138 636 145.163 636 154C636 162.837 643.163 170 652 170Z" fill="#DDE3E9"/>
<rect x="627" y="174" width="50" height="6" rx="3" fill="#DDE3E9"/>
<rect x="635" y="184" width="34" height="6" rx="3" fill="#DDE3E9"/>
<path d="M368 88C368 83.5817 371.582 80 376 80H695C699.418 80 703 83.5817 703 88V107H368V88Z" fill="#C5CFD6"/>
<path fill-rule="evenodd" clip-rule="evenodd" d="M381 98C383.209 98 385 96.2091 385 94C385 91.7909 383.209 90 381 90C378.791 90 377 91.7909 377 94C377 96.2091 378.791 98 381 98Z" fill="#F2F2F2"/>
<path fill-rule="evenodd" clip-rule="evenodd" d="M393 98C395.209 98 397 96.2091 397 94C397 91.7909 395.209 90 393 90C390.791 90 389 91.7909 389 94C389 96.2091 390.791 98 393 98Z" fill="#F2F2F2"/>
<path fill-rule="evenodd" clip-rule="evenodd" d="M405 98C407.209 98 409 96.2091 409 94C409 91.7909 407.209 90 405 90C402.791 90 401 91.7909 401 94C401 96.2091 402.791 98 405 98Z" fill="#F2F2F2"/>
<g clip-path="url(#clip22_4_2929)">
<rect x="617" y="212" width="70" height="194" rx="8" fill="white"/>
<g clip-path="url(#clip23_4_2929)">
<rect x="635" y="230" width="34" height="26" rx="4" fill="#DDE3E9"/>
<rect x="635" y="264" width="34" height="25" rx="4" fill="#AFB9C5"/>
<rect x="635" y="297" width="34" height="25" rx="4" fill="#DDE3E9"/>
<rect x="635" y="363" width="34" height="25" rx="4" fill="#DDE3E9"/>
<rect x="635" y="330" width="34" height="25" rx="4" fill="#C5CFD6"/>
</g>
</g>
<g clip-path="url(#clip24_4_2929)">
<g clip-path="url(#clip25_4_2929)">
<rect x="384" y="124" width="225" height="47" rx="4" fill="white"/>
<g clip-path="url(#clip26_4_2929)">
<rect x="393" y="138.1" width="167" height="7.05" rx="3" fill="#DDE3E9"/>
<rect x="393" y="149.85" width="112.096" height="7.05" rx="3" fill="#DDE3E9"/>
</g>
<path fill-rule="evenodd" clip-rule="evenodd" d="M584.954 154.5C588.82 154.5 591.954 151.366 591.954 147.5C591.954 143.634 588.82 140.5 584.954 140.5C581.088 140.5 577.954 143.634 577.954 147.5C577.954 151.366 581.088 154.5 584.954 154.5Z" fill="#DDE3E9"/>
<path fill-rule="evenodd" clip-rule="evenodd" d="M584.954 150.5C586.611 150.5 587.954 149.157 587.954 147.5C587.954 145.843 586.611 144.5 584.954 144.5C583.297 144.5 581.954 145.843 581.954 147.5C581.954 149.157 583.297 150.5 584.954 150.5Z" fill="#F2F2F2"/>
</g>
<g clip-path="url(#clip27_4_2929)">
<rect x="384" y="179" width="225" height="39" rx="4" fill="white"/>
<g clip-path="url(#clip28_4_2929)">
<rect x="393" y="190.7" width="167" height="5.85" rx="2.925" fill="#DDE3E9"/>
<rect x="393" y="200.45" width="112.096" height="5.85" rx="2.925" fill="#DDE3E9"/>
</g>
<path fill-rule="evenodd" clip-rule="evenodd" d="M584.954 205.5C588.82 205.5 591.954 202.366 591.954 198.5C591.954 194.634 588.82 191.5 584.954 191.5C581.088 191.5 577.954 194.634 577.954 198.5C577.954 202.366 581.088 205.5 584.954 205.5Z" fill="#DDE3E9"/>
<path fill-rule="evenodd" clip-rule="evenodd" d="M584.954 201.5C586.611 201.5 587.954 200.157 587.954 198.5C587.954 196.843 586.611 195.5 584.954 195.5C583.297 195.5 581.954 196.843 581.954 198.5C581.954 200.157 583.297 201.5 584.954 201.5Z" fill="#F2F2F2"/>
</g>
<g clip-path="url(#clip29_4_2929)">
<rect x="384" y="226" width="225" height="39" rx="4" fill="white"/>
<g clip-path="url(#clip30_4_2929)">
<rect x="393" y="237.7" width="167" height="5.85" rx="2.925" fill="#DDE3E9"/>
<rect x="393" y="247.45" width="112.096" height="5.85" rx="2.925" fill="#DDE3E9"/>
</g>
<path fill-rule="evenodd" clip-rule="evenodd" d="M584.954 252.5C588.82 252.5 591.954 249.366 591.954 245.5C591.954 241.634 588.82 238.5 584.954 238.5C581.088 238.5 577.954 241.634 577.954 245.5C577.954 249.366 581.088 252.5 584.954 252.5Z" fill="#DDE3E9"/>
<path fill-rule="evenodd" clip-rule="evenodd" d="M584.954 248.5C586.611 248.5 587.954 247.157 587.954 245.5C587.954 243.843 586.611 242.5 584.954 242.5C583.297 242.5 581.954 243.843 581.954 245.5C581.954 247.157 583.297 248.5 584.954 248.5Z" fill="#AFB9C5"/>
</g>
<g clip-path="url(#clip31_4_2929)">
<rect x="384" y="367" width="225" height="39" rx="4" fill="white"/>
<g clip-path="url(#clip32_4_2929)">
<rect x="393" y="378.7" width="167" height="5.85" rx="2.925" fill="#DDE3E9"/>
<rect x="393" y="388.45" width="112.096" height="5.85" rx="2.925" fill="#DDE3E9"/>
</g>
<path fill-rule="evenodd" clip-rule="evenodd" d="M584.954 393.5C588.82 393.5 591.954 390.366 591.954 386.5C591.954 382.634 588.82 379.5 584.954 379.5C581.088 379.5 577.954 382.634 577.954 386.5C577.954 390.366 581.088 393.5 584.954 393.5Z" fill="#DDE3E9"/>
<path fill-rule="evenodd" clip-rule="evenodd" d="M584.954 389.5C586.611 389.5 587.954 388.157 587.954 386.5C587.954 384.843 586.611 383.5 584.954 383.5C583.297 383.5 581.954 384.843 581.954 386.5C581.954 388.157 583.297 389.5 584.954 389.5Z" fill="#F2F2F2"/>
</g>
<g clip-path="url(#clip33_4_2929)">
<rect x="384" y="320" width="225" height="39" rx="4" fill="white"/>
<g clip-path="url(#clip34_4_2929)">
<rect x="393" y="331.7" width="167" height="5.85" rx="2.925" fill="#DDE3E9"/>
<rect x="393" y="341.45" width="112.096" height="5.85" rx="2.925" fill="#DDE3E9"/>
</g>
<path fill-rule="evenodd" clip-rule="evenodd" d="M584.954 346.5C588.82 346.5 591.954 343.366 591.954 339.5C591.954 335.634 588.82 332.5 584.954 332.5C581.088 332.5 577.954 335.634 577.954 339.5C577.954 343.366 581.088 346.5 584.954 346.5Z" fill="#DDE3E9"/>
<path fill-rule="evenodd" clip-rule="evenodd" d="M584.954 342.5C586.611 342.5 587.954 341.157 587.954 339.5C587.954 337.843 586.611 336.5 584.954 336.5C583.297 336.5 581.954 337.843 581.954 339.5C581.954 341.157 583.297 342.5 584.954 342.5Z" fill="#F2F2F2"/>
</g>
<g clip-path="url(#clip35_4_2929)">
<rect x="384" y="273" width="225" height="39" rx="4" fill="white"/>
<g clip-path="url(#clip36_4_2929)">
<rect x="393" y="284.7" width="167" height="5.85" rx="2.925" fill="#DDE3E9"/>
<rect x="393" y="294.45" width="112.096" height="5.85" rx="2.925" fill="#DDE3E9"/>
</g>
<path fill-rule="evenodd" clip-rule="evenodd" d="M584.954 299.5C588.82 299.5 591.954 296.366 591.954 292.5C591.954 288.634 588.82 285.5 584.954 285.5C581.088 285.5 577.954 288.634 577.954 292.5C577.954 296.366 581.088 299.5 584.954 299.5Z" fill="#DDE3E9"/>
<path fill-rule="evenodd" clip-rule="evenodd" d="M584.954 295.5C586.611 295.5 587.954 294.157 587.954 292.5C587.954 290.843 586.611 289.5 584.954 289.5C583.297 289.5 581.954 290.843 581.954 292.5C581.954 294.157 583.297 295.5 584.954 295.5Z" fill="#F2F2F2"/>
</g>
</g>
</g>
<path fill-rule="evenodd" clip-rule="evenodd" d="M785.986 250.376C782.041 247.701 776.796 247 772.076 247C753.64 247 736.311 253.84 721.341 264.032C713.138 269.616 705.8 276.728 699.322 284.132C695.582 288.407 692.248 293.03 689.887 298.173C688.294 301.644 687.201 305.261 686.46 308.991C685.557 313.537 684.839 318.175 684.515 322.797C684.387 324.617 683.33 334.274 686.356 334.438C686.338 334.676 686.334 334.903 686.353 335.106C679.782 345.38 675.723 357.42 671.958 368.835C668.683 378.769 665.764 388.786 663.87 399.063C661.375 412.592 659.737 426.326 658.958 440.05C658.791 442.999 658.676 445.95 658.577 448.903C658.493 451.422 658.408 453.941 658.325 456.461C658.233 459.284 657.736 462.534 658.185 465.34C658.576 467.784 660.691 467.414 660.785 464.982C660.898 462.045 660.879 459.102 661.008 456.163C661.179 452.262 661.355 448.361 661.546 444.461C662.875 417.369 667.86 390.675 677.061 365.084C680.785 354.728 685.051 344.925 690.535 335.345C695.356 326.922 701.156 318.767 707.084 311.173C712.845 303.792 718.836 296.583 725.895 290.33C731.624 285.256 737.926 280.835 744.404 276.722C752.631 271.498 760.843 266.401 769.755 262.391C774.388 260.307 779.108 258.441 783.777 256.44C784.617 256.081 785.517 255.732 786.325 255.315C789.02 253.925 788.133 251.832 785.986 250.376" fill="#C1DEE2"/>
<path fill-rule="evenodd" clip-rule="evenodd" d="M711.818 345C719.295 345 725.949 345.972 732.838 348.943C738.785 351.508 744.205 354.903 749.467 358.599C756.868 363.798 762.698 369.848 766.779 377.865C769.217 382.654 771.006 389.431 769.368 394.655C767.44 400.807 762.144 405.939 755.169 404.855C750.856 404.185 746.903 401.33 743.625 398.643C739.703 395.428 736.564 391.563 733.972 387.27C729.744 380.267 727.26 372.351 723.668 365.033C721.964 361.56 720.317 358.063 718.275 354.762C717.265 353.128 716.189 351.509 714.656 350.294C713.836 349.644 710.378 348.52 711.7 347.061C692.31 347.315 675.132 362.207 671.409 380.641C671.063 382.359 670.792 384.091 670.505 385.82C670.325 386.911 670.398 390.937 669.422 391.634C667.27 393.172 668.174 388.499 668.267 387.826C668.506 386.087 668.76 384.35 669.027 382.615C670.481 373.181 674.681 364.411 681.685 357.683C689.694 349.99 700.501 345 711.818 345" fill="#89C5CC"/>
<path fill-rule="evenodd" clip-rule="evenodd" d="M74.9379 273.736C93.6043 305.052 115.345 335.374 128.401 369.613C127.875 365.577 127.317 361.545 126.692 357.52C123.38 336.179 119.262 314.994 114.936 293.835C112.733 283.062 110.402 272.327 108.012 261.594C106.727 255.829 105.457 250.061 104.145 244.302C103.827 242.906 103.554 240.469 103.157 238C115.845 279.637 128.081 321.305 137.031 363.942C138.205 369.538 139.205 375.124 140.024 380.7C140.304 379.428 140.58 378.156 140.881 376.887C144.503 361.68 149.935 346.594 156.403 332.374C159.495 325.575 163.046 318.924 167.228 312.726C169.836 308.863 175.986 304.271 178.364 300.314C165.355 324.176 160.657 354.032 153.145 379.973C151.312 386.304 149.467 392.624 147.659 398.955C158.987 376.237 176.563 357.571 201 349.483C171.42 369.027 153.678 403.254 141.722 438.26C141.683 438.675 141.636 439.09 141.595 439.506C145.114 432.829 149.545 426.789 155.551 422.56C168.407 413.504 182.667 416.142 195.137 423.91C185.35 417.689 167.663 423.354 159.428 429.677C153.533 434.203 148.495 440.275 144.12 446.2C143.072 447.62 141.641 449.277 140.13 451.044C138.012 464.795 134.56 478.452 129.672 492C130.479 488.111 129.896 481.892 130.12 478.993C130.144 478.679 130.164 478.365 130.188 478.053C129.445 481.019 128.727 483.951 128.036 486.837C129.41 481.331 130.156 475.583 130.739 469.776C130.889 467.281 131.036 464.785 131.19 462.29C131.141 457.553 130.946 452.799 130.616 448.036C129.447 443.408 128.137 439.042 127.056 435.411C123.159 422.31 117.444 409.76 110.411 398.051C103.994 387.366 96.3124 377.688 87.4448 368.935C82.6643 364.217 77.6614 359.725 72.7289 355.17C70.9453 353.523 67.7572 349.474 65 347.363C85.0805 358.434 105.749 370.41 120.398 388.248C118.68 381.653 116.815 375.151 114.842 368.78C104.831 336.454 92.1913 302.953 74.9379 273.736Z" fill="#DDE3E9"/>
<path fill-rule="evenodd" clip-rule="evenodd" d="M95 451C95 486.899 97.8428 516 136 516C174.157 516 177 486.899 177 451" fill="#C5CFD6"/>
<rect x="618" y="37" width="6" height="25" rx="3" fill="#DDE3E9"/>
<rect x="632" y="21" width="6" height="41" rx="3" fill="#DDE3E9"/>
<rect x="646" y="13" width="6" height="49" rx="3" fill="#DDE3E9"/>
<rect x="660" y="21" width="6" height="41" rx="3" fill="#DDE3E9"/>
<rect x="674" y="5" width="6" height="57" rx="3" fill="#C5CFD6"/>
<path fill-rule="evenodd" clip-rule="evenodd" d="M126 311.256C126 300.117 135.002 291 146 291V311.256L132.332 326C128.444 322.395 126 317.107 126 311.256Z" fill="#F2F2F2"/>
<path fill-rule="evenodd" clip-rule="evenodd" d="M145.471 311H165.668C165.668 316.221 163.538 321.113 160.171 324.668C156.468 328.556 151.195 331 145.471 331C140.198 331 135.372 328.891 131.668 325.557L145.471 311Z" fill="#AFB9C5"/>
<path fill-rule="evenodd" clip-rule="evenodd" d="M166 311C166 300.002 156.998 291 146 291V311H166ZM136 291L144 309L126 301C127.78 296.334 131.777 292.78 136 291Z" fill="#C5CFD6"/>
<path fill-rule="evenodd" clip-rule="evenodd" d="M776.766 320.179C774.845 322.219 772.123 323.5 769.095 323.5C763.278 323.5 758.562 318.799 758.562 313C758.562 307.201 763.278 302.5 769.095 302.5V283C752.546 283 739 296.503 739 313C739 329.497 752.546 343 769.095 343C777.788 343 785.645 339.334 791 333.502L776.766 320.179Z" fill="#F2F2F2"/>
<path fill-rule="evenodd" clip-rule="evenodd" d="M769 283V302.5C774.799 302.5 779.5 307.201 779.5 313H799C799 296.503 785.497 283 769 283Z" fill="#AFB9C5"/>
<path fill-rule="evenodd" clip-rule="evenodd" d="M779.097 313C779.097 316.407 777.492 319.435 775 321.391L787.262 337C794.399 331.412 799 322.749 799 313H779.097Z" fill="#C5CFD6"/>
<path fill-rule="evenodd" clip-rule="evenodd" d="M586.051 44.5039C584.573 46.0679 582.479 47.05 580.15 47.05C575.675 47.05 572.048 43.4459 572.048 39C572.048 34.5541 575.675 30.95 580.15 30.95V16C567.42 16 557 26.3523 557 39C557 51.6477 567.42 62 580.15 62C586.837 62 592.88 59.1894 597 54.7182L586.051 44.5039Z" fill="#F2F2F2"/>
<path fill-rule="evenodd" clip-rule="evenodd" d="M580 16V30.95C584.446 30.95 588.05 34.5541 588.05 39H603C603 26.3523 592.648 16 580 16Z" fill="#AFB9C5"/>
<path fill-rule="evenodd" clip-rule="evenodd" d="M588.073 39C588.073 41.5552 586.869 43.8266 585 45.2931L594.196 57C599.55 52.8088 603 46.312 603 39H588.073Z" fill="#C5CFD6"/>
<path fill-rule="evenodd" clip-rule="evenodd" d="M222.007 61.9863C222.003 61.9963 221.999 62.0063 221.993 62.0183C221.999 62.0083 222.007 61.9683 222.007 61.9863" fill="#C5CFD6"/>
<path fill-rule="evenodd" clip-rule="evenodd" d="M221.998 62.0015C221.998 62.0035 221.996 62.0075 221.996 62.0115C221.996 62.0015 222.014 61.9715 221.998 62.0015" fill="#C5CFD6"/>
<path fill-rule="evenodd" clip-rule="evenodd" d="M222.067 61.8323C222.053 61.8723 222.035 61.9103 222.019 61.9503C222.027 61.9303 222.035 61.9143 222.043 61.8943C221.835 62.4143 221.967 62.0763 222.067 61.8323" fill="#C5CFD6"/>
<path fill-rule="evenodd" clip-rule="evenodd" d="M222.022 61.9528C222.014 61.9708 222.006 61.9907 221.998 62.0087C221.94 62.1207 222.022 61.9528 222.022 61.9528" fill="#C5CFD6"/>
<path fill-rule="evenodd" clip-rule="evenodd" d="M221.999 62.002C221.999 62 221.999 62 222.001 61.998C221.999 62 221.999 62 221.999 62.002" fill="#C5CFD6"/>
<path fill-rule="evenodd" clip-rule="evenodd" d="M221.99 62.0164C221.978 62.0404 222.046 61.9244 221.99 62.0164Z" fill="#C5CFD6"/>
<path fill-rule="evenodd" clip-rule="evenodd" d="M221.998 62.002L222.002 61.998C222 62 222 62.002 221.998 62.002" fill="#C5CFD6"/>
<rect x="174" y="10" width="95" height="63" rx="4" fill="#DDE3E9"/>
<path fill-rule="evenodd" clip-rule="evenodd" d="M210 28L182 73H238L210 28Z" fill="#AFB9C5"/>
<path fill-rule="evenodd" clip-rule="evenodd" d="M237.5 40L213 73H262L237.5 40Z" fill="#C5CFD6"/>
<path fill-rule="evenodd" clip-rule="evenodd" d="M248 40C252.971 40 257 35.9706 257 31C257 26.0294 252.971 22 248 22C243.029 22 239 26.0294 239 31C239 35.9706 243.029 40 248 40Z" fill="white"/>
<path fill-rule="evenodd" clip-rule="evenodd" d="M698.993 488.986C698.997 488.996 699.001 489.006 699.007 489.018C699.001 489.008 698.993 488.968 698.993 488.986" fill="#C5CFD6"/>
<path fill-rule="evenodd" clip-rule="evenodd" d="M699.002 489.001C699.002 489.003 699.004 489.007 699.004 489.011C699.004 489.001 698.986 488.971 699.002 489.001" fill="#C5CFD6"/>
<path fill-rule="evenodd" clip-rule="evenodd" d="M698.933 488.832C698.947 488.872 698.965 488.91 698.981 488.95C698.973 488.93 698.965 488.914 698.957 488.894C699.165 489.414 699.033 489.076 698.933 488.832" fill="#C5CFD6"/>
<path fill-rule="evenodd" clip-rule="evenodd" d="M698.978 488.953C698.986 488.971 698.994 488.991 699.002 489.009C699.06 489.121 698.978 488.953 698.978 488.953" fill="#C5CFD6"/>
<path fill-rule="evenodd" clip-rule="evenodd" d="M699.001 489.002C699.001 489 699.001 489 698.999 488.998C699.001 489 699.001 489 699.001 489.002" fill="#C5CFD6"/>
<path fill-rule="evenodd" clip-rule="evenodd" d="M699.01 489.016C699.022 489.04 698.954 488.924 699.01 489.016Z" fill="#C5CFD6"/>
<path fill-rule="evenodd" clip-rule="evenodd" d="M699.002 489.002L698.998 488.998C699 489 699 489.002 699.002 489.002" fill="#C5CFD6"/>
<rect width="142" height="94" rx="4" transform="matrix(-1 0 0 1 770 412)" fill="#DDE3E9"/>
<path fill-rule="evenodd" clip-rule="evenodd" d="M717.274 439L758.329 506H676.219L717.274 439Z" fill="#AFB9C5"/>
<path fill-rule="evenodd" clip-rule="evenodd" d="M674.944 456.946L711.239 506H638.649L674.944 456.946Z" fill="#C5CFD6"/>
<path fill-rule="evenodd" clip-rule="evenodd" d="M659.5 457C652.044 457 646 450.956 646 443.5C646 436.044 652.044 430 659.5 430C666.956 430 673 436.044 673 443.5C673 450.956 666.956 457 659.5 457Z" fill="white"/>
<path fill-rule="evenodd" clip-rule="evenodd" d="M246.528 164.514C253.78 168.885 260.906 170.997 264.251 170.135C272.639 167.973 273.411 137.287 266.92 125.19C260.43 113.093 227.065 107.82 225.384 131.788C224.8 140.107 228.293 147.531 233.454 153.589L224.2 196.72H251.08L246.528 164.514Z" fill="#784931"/>
<path fill-rule="evenodd" clip-rule="evenodd" d="M256.303 112.014C252.63 110.894 247.298 110.515 245.055 110.771C246.331 107.715 246.837 104.309 246.425 100.993C246.024 97.7703 244.584 95.0267 243.252 92.1516C242.638 90.8264 241.943 89.5084 240.906 88.4948C239.849 87.4621 238.512 86.7805 237.109 86.4553C235.674 86.1224 234.174 86.1501 232.736 86.4522C232.1 86.5858 231.53 86.8766 230.906 87.0382C230.268 87.2038 229.958 86.8041 229.494 86.4024C228.377 85.4345 226.74 84.9567 225.327 84.7857C223.741 84.594 222.096 84.8331 220.584 85.3544C219.112 85.8618 217.698 86.6857 216.634 87.886C216.16 88.4203 215.73 89.0285 215.451 89.6999C215.336 89.9755 215.317 90.1387 215.042 90.2397C214.788 90.3331 214.49 90.3358 214.228 90.4247C211.69 91.2843 209.52 93.2451 208.339 95.7627C207.65 97.2314 207.323 99.8174 207.413 102.716C207.502 105.614 210.119 113.177 212.567 115.936C214.752 118.398 217.964 120.023 221.063 120.734C219.006 123.085 217.636 126.024 216.624 129.012C215.524 132.258 214.843 135.631 214.591 139.068C214.353 142.333 214.331 145.786 215.096 148.982C215.812 151.97 217.344 154.422 219.9 155.977C221.071 156.689 222.331 157.225 223.598 157.714C224.847 158.196 226.1 158.664 227.408 158.935C229.884 159.447 232.737 159.359 234.644 157.388C235.331 156.678 236.087 155.785 236.589 154.917C236.769 154.605 236.878 154.401 236.659 154.096C236.396 153.73 235.972 153.45 235.635 153.165C233.712 151.535 232.522 149.359 232.222 146.774C231.918 144.15 232.622 140.764 235.173 139.619C238.321 138.206 241.789 139.828 244.587 141.34C245.776 137.143 248.218 133.363 252.047 131.438C256.283 129.308 261.143 129.058 265.496 127.231C266.63 126.755 267.785 126.214 268.62 125.244C268.969 124.838 269.379 124.312 269.518 123.776C269.701 123.071 269.247 122.48 268.896 121.931C267.034 119.018 259.976 113.134 256.303 112.014Z" fill="#191847"/>
<path fill-rule="evenodd" clip-rule="evenodd" d="M216.36 286.32L257.387 427.694L276.683 533.84H296.052L276.718 286.32H216.36Z" fill="#915B3C"/>
<path fill-rule="evenodd" clip-rule="evenodd" d="M197.922 286.32C200.785 359.763 199.656 399.821 199.015 406.494C198.374 413.166 194.737 457.855 169.951 536.08H190.096C222.921 461.037 234.38 416.348 238.144 406.494C241.909 396.64 253.028 356.582 269.261 286.32H197.922Z" fill="#784931"/>
<path fill-rule="evenodd" clip-rule="evenodd" d="M215.479 286.32C226.151 334.967 244.608 412.621 270.851 519.28H299.18C301.272 409.804 292.371 337.751 276.957 286.32H215.479Z" fill="#69A1AC"/>
<path fill-rule="evenodd" clip-rule="evenodd" d="M197.779 286.32C200.583 359.763 193.317 432.119 170.81 520.423H201.035C233.92 446.5 257.49 374.502 273.598 286.32H197.779Z" fill="#89C5CC"/>
<path fill-rule="evenodd" clip-rule="evenodd" d="M167.08 550.64L168.114 533.969C168.154 533.329 168.776 532.891 169.403 533.029C179.121 535.17 192.645 530.48 192.645 530.48C206.307 540.158 226.087 544.526 232.664 545.77C233.846 545.993 234.592 547.183 234.264 548.34L232.659 554H192.645H169.303L167.08 550.64Z" fill="#191847"/>
<path fill-rule="evenodd" clip-rule="evenodd" d="M272.36 550.64L273.394 533.969C273.434 533.329 274.056 532.891 274.683 533.029C284.401 535.17 297.925 530.48 297.925 530.48C311.587 540.158 331.367 544.526 337.944 545.77C339.126 545.993 339.872 547.183 339.544 548.34L337.939 554H297.925H274.583L272.36 550.64Z" fill="#191847"/>
<path fill-rule="evenodd" clip-rule="evenodd" d="M311.95 198.613L273.075 219.904L287.43 235.313L315.678 209.449C330.558 205.348 337.363 202.348 336.093 200.449C335.022 198.848 333.294 198.903 331.703 198.954C330.463 198.994 329.306 199.032 328.607 198.281C327.009 196.566 330.057 190.572 333.193 185.006C336.328 179.441 332.975 179.926 331.058 180.726C324.784 184.974 318.414 190.936 311.95 198.613ZM351.036 228.488L333.96 237.869L334.932 255.005C334.932 255.005 345.992 247.023 355.507 244.37C367.639 240.987 372.547 238.404 378.476 230.85C381.648 226.808 384.34 218.683 381.321 216.037C380.163 215.022 375.847 217.42 371.444 219.867C368.089 221.732 364.682 223.625 362.583 224.057C359.758 224.638 360.089 220.976 360.353 218.05C360.543 215.95 360.698 214.229 359.629 214.727C354.63 214.812 351.036 228.488 351.036 228.488Z" fill="#915B3C"/>
<path fill-rule="evenodd" clip-rule="evenodd" d="M254.142 215.161C267.759 215.017 285.916 212.141 305.291 199.843L312.899 216.811C299.536 230.074 280.745 240.971 264.314 240.509C251.366 240.146 244.748 224.484 254.142 215.161Z" fill="#2026A2"/>
<path fill-rule="evenodd" clip-rule="evenodd" d="M217.418 331.41C204.473 329.722 192.578 328.171 185.53 329.559C177.621 303.874 184.188 287.702 190.25 272.773C193.904 263.776 197.375 255.229 197.382 245.324C197.404 216.479 220.565 172.08 223.973 172.08H224.951H251.957H255.049C256.438 189.93 262.368 209.256 268.336 228.707C269.73 233.249 271.126 237.798 272.466 242.337C295.051 247.463 345.2 229.618 345.2 229.618C345.2 229.618 357.86 255.81 356.905 266.963C327.715 282.211 302.697 289.009 282.085 289.458C282.74 301.688 281.252 313.325 276.251 323.959C269.55 338.206 241.645 334.568 217.418 331.41Z" fill="#1F28CF"/>
<path fill-rule="evenodd" clip-rule="evenodd" d="M481.261 226.773C478.317 233.435 474.536 238.347 472.007 239.266C465.666 241.57 452.679 218.97 451.983 206.884C451.287 194.798 470.866 175.253 481.713 192.401C485.478 198.352 486.224 205.54 485.328 212.486L508.902 240.432L491.4 252.999L481.261 226.773Z" fill="#B28B67"/>
<path fill-rule="evenodd" clip-rule="evenodd" d="M445.282 199.888C447.716 204.364 452.758 205.827 456.73 203.303C459.352 202.504 462.489 201.048 465.753 199.039C466.164 200.572 466.811 202.184 467.728 203.872C468.539 205.362 469.541 206.84 470.677 208.255C470.852 206.839 471.431 205.581 472.353 204.919C474.933 203.066 478.055 204.215 479.463 206.805C481.25 210.091 480.892 213.654 478.585 215.575C483.359 218.804 488.321 220.253 491.32 218.1C497.016 214.01 496.307 202.35 491.191 192.941C491.011 192.611 490.827 192.287 490.638 191.969C493.393 192.105 496.264 192.815 499.155 193.53L499.155 193.53C505.298 195.05 511.535 196.593 516.956 192.7C527.803 184.911 518.44 156.677 503.285 167.559C492.979 174.96 488.849 180.327 485.868 186.017C483.489 183.844 480.899 182.441 478.401 181.956C477.742 181.733 476.89 181.68 475.884 181.786C475.257 181.827 474.643 181.935 474.048 182.112C470.808 182.892 466.565 184.847 462.209 187.737C461.396 188.277 460.609 188.829 459.853 189.388C457.33 184.781 452.037 183.384 448.018 186.271C443.99 189.163 442.765 195.259 445.282 199.888Z" fill="#191847"/>
<path fill-rule="evenodd" clip-rule="evenodd" d="M580.416 414.754C580.416 414.754 549.473 424.7 527.022 424.7C504.572 424.7 485.316 409.384 485.316 409.384C485.316 409.384 515.597 399.175 535.191 399.175C554.786 399.175 580.416 414.754 580.416 414.754Z" fill="#1F28CF"/>
<path fill-rule="evenodd" clip-rule="evenodd" d="M509.164 434.257C509.363 433.913 509.531 433.54 509.664 433.135C512.422 424.755 556.589 334.354 560.989 317.826H511.263C507.918 330.392 492.86 409.252 490.741 424.985C484.055 449.803 470.289 530.18 468.531 535.749C466.683 541.606 477.085 547.708 479.857 540.507C484.267 529.049 494.776 497.343 499.456 477.984C503.842 459.835 507.414 443.507 509.164 434.257Z" fill="#997659"/>
<path fill-rule="evenodd" clip-rule="evenodd" d="M549.847 445.294C570.039 451.159 643.899 461.761 648.967 463.424C654.181 465.135 658.753 452.785 652.308 450.11C642.054 445.853 613.797 436.017 596.665 432.004C582.885 428.775 570.311 426.141 561.869 424.598C562.584 397.348 565.854 331.95 563.711 317.826H519.713C521.768 331.37 539.138 430.199 542.367 440.091C543.391 443.623 546.449 445.184 549.847 445.294V445.294Z" fill="#B28B67"/>
<path fill-rule="evenodd" clip-rule="evenodd" d="M650.453 449.202C650.219 448.116 650.826 447.046 651.88 446.835C653.688 446.473 656.345 446.05 657.768 446.338C660.059 446.803 664.319 448.57 664.319 448.57C663.85 451.624 655.897 503.458 655.897 503.458C655.897 503.458 649.413 504.351 649.63 499.642C649.846 494.933 649.919 491.803 649.919 491.803L643.924 464.229C643.81 463.707 644.111 463.202 644.612 463.075L648.299 462.143C648.299 462.143 650.686 458.227 651.096 455.559C651.35 453.899 650.86 451.088 650.453 449.202Z" fill="black"/>
<path fill-rule="evenodd" clip-rule="evenodd" d="M480.186 538.69C481.314 538.14 482.708 538.653 483.08 539.852C483.694 541.827 484.456 544.602 484.456 546.199C484.456 548.872 483.681 554 483.681 554C480.983 554 435.18 554 435.18 554C435.18 554 433.289 546.818 437.363 546.245C441.436 545.672 444.13 545.211 444.13 545.211L466.468 533.767C467.005 533.492 467.661 533.752 467.865 534.32L469.267 538.227C469.267 538.227 473.038 540.249 475.395 540.249C476.698 540.249 478.677 539.426 480.186 538.69Z" fill="black"/>
<path fill-rule="evenodd" clip-rule="evenodd" d="M563.569 317.826C563.569 317.826 534.486 308.264 508.534 317.826C502.514 349.386 487.888 361.912 485.316 410.298C514.553 426.992 550.67 398.392 580.767 414.672C589.366 391.901 577.327 337.06 563.569 317.826Z" fill="#2B44FF"/>
<path fill-rule="evenodd" clip-rule="evenodd" d="M444.708 352.421L460.654 322.046L472.21 330.699L452.833 353.915C449.764 365.096 447.518 370.333 446.094 369.626C444.893 369.031 444.934 367.779 444.972 366.626C445.001 365.728 445.029 364.889 444.465 364.468C443.18 363.505 438.687 366.363 434.516 369.237C430.345 372.111 430.707 369.64 431.306 368.17C434.488 363.178 438.955 357.928 444.708 352.421ZM588.629 322.847C584.814 319.509 562.554 280.388 562.554 280.388L545.798 287.849C545.798 287.849 576.7 326.99 578.878 329.258C581.708 332.204 580.75 338.721 580.1 343.14C580 343.824 579.907 344.457 579.836 345.02C582.759 344.94 583.569 343.12 584.422 341.202C585.385 339.034 586.405 336.741 590.59 336.688C592.207 336.668 593.785 336.791 595.326 336.911C600.651 337.326 605.542 337.708 610.123 332.02C610.849 331.119 611.193 328.778 608.324 328.333C601.177 327.225 590.493 324.48 588.629 322.847Z" fill="#B28B67"/>
<path fill-rule="evenodd" clip-rule="evenodd" d="M493.315 236.868L486.008 238.838C483.202 271.488 470.645 305.568 448.337 341.08L479.216 356.223C498.352 311.229 505.728 270.264 493.315 236.868Z" fill="#191847"/>
<path fill-rule="evenodd" clip-rule="evenodd" d="M550.299 303.514L488.483 330.782C488.483 330.782 493.966 273.411 482.783 239.933L500.578 229.16C522.452 244.308 535.479 269.091 550.299 303.514Z" fill="#DDE3E9"/>
<path fill-rule="evenodd" clip-rule="evenodd" d="M586.512 315.413C556.389 248.458 500.988 228.979 500.988 228.979L500.977 228.998C500.973 228.995 500.97 228.992 500.966 228.989L499.749 229.526C497.587 230.559 493.177 232.71 493.177 232.71L492.615 246.505C499.113 268.414 513.338 337.222 513.338 337.222L553.8 319.374C554.734 322.405 555.598 325.515 556.382 328.703L586.512 315.413Z" fill="#2F3676"/>
<path fill-rule="evenodd" clip-rule="evenodd" d="M553.89 319.667C549.848 306.458 544.486 294.747 538.668 284.574C541.966 298.236 544.957 315.105 542.618 324.64L553.89 319.667Z" fill="black" fill-opacity="0.1"/>
<path fill-rule="evenodd" clip-rule="evenodd" d="M537.314 300.796L514.488 301.092L517.333 309.61L537.314 300.796Z" fill="white" fill-opacity="0.2"/>
<path fill-rule="evenodd" clip-rule="evenodd" d="M702.823 157.65C695.538 162.041 688.38 164.162 685.02 163.296C676.594 161.125 675.82 130.302 682.339 118.151C688.858 105.999 722.372 100.703 724.061 124.779C724.647 133.134 721.139 140.592 715.955 146.676L725.25 190H698.25L702.823 157.65Z" fill="#D4A181"/>
<path fill-rule="evenodd" clip-rule="evenodd" d="M697.728 104.146C701.287 103.562 710.868 103.161 712.635 103.161C713.764 103.161 714.988 103.419 715.657 102.383C716.204 101.533 716.004 100.098 716.167 99.1122C716.357 97.9677 716.627 96.8378 716.899 95.7109C717.675 92.504 718.849 89.4531 720.49 86.5886C723.571 81.2146 728.084 77.0051 733.781 74.5556C740.073 71.851 747.192 71.2317 753.959 71.7803C761.201 72.3672 767.757 74.7579 774.595 77.0077C781.111 79.1516 787.935 79.9954 794.75 78.9485C801.617 77.8938 806.805 74.1723 812.596 70.6401C818.525 67.024 825.301 64.659 832.31 65.2026C838.853 65.7103 844.883 68.4118 850.293 72.0207C855.355 75.3972 859.532 79.4595 861.89 85.177C864.427 91.3273 864.424 98.0782 860.253 103.514C854.206 111.392 842.981 113.43 833.643 113.227C828.241 113.11 822.936 112.124 817.836 110.331C811.035 107.938 805.157 103.884 798.795 100.594C795.809 99.0503 792.722 97.7825 789.487 96.8692C786.347 95.9826 783.255 95.5759 780.413 97.4724C777.406 99.4787 774.711 101.45 771.271 102.706C767.971 103.91 764.476 104.584 760.96 104.557C754.119 104.504 747.376 102.373 740.732 100.945C735.314 99.7813 729.517 98.6211 723.993 99.7401C721.688 100.207 718.322 101.171 717.489 103.567C731.5 106.106 737.003 123.434 733.053 136.154C730.921 143.02 718.106 151.046 713.124 147.437C709.967 145.15 711.884 142.148 713.124 140.166C715.499 136.371 716.312 131.496 711.917 128.854C708.126 126.575 704.14 131.987 704.064 131.981C703.023 131.899 694.019 126.807 687.817 119.377C681.697 119.74 680.769 115.705 682.23 112.405C683.691 109.106 692.811 104.953 697.728 104.146Z" fill="#191847"/>
<path fill-rule="evenodd" clip-rule="evenodd" d="M743.213 285L700.941 423.467L680.464 541.223H664.408L686.046 285H743.213Z" fill="#BA8B72"/>
<path fill-rule="evenodd" clip-rule="evenodd" d="M758.336 285C755.465 361.026 758.844 400.241 759.486 407.148C760.129 414.055 768.928 458.842 789.76 543.542L772.651 537.655C739.729 459.973 728.51 419.6 724.734 409.399C720.958 399.199 710.929 357.732 694.648 285H758.336Z" fill="#D4A181"/>
<path fill-rule="evenodd" clip-rule="evenodd" d="M786.761 536.204C787.831 535.725 789.106 536.203 789.509 537.303C790.334 539.556 791.517 543.132 791.517 545.115C791.517 548.159 790.504 554 790.504 554C786.979 554 727.146 554 727.146 554C727.146 554 724.677 545.819 729.998 545.167C735.319 544.515 738.838 543.989 738.838 543.989L768.401 530.784C768.916 530.554 769.519 530.795 769.734 531.317L771.675 536.035C771.675 536.035 776.601 538.338 779.681 538.338C781.632 538.338 784.744 537.106 786.761 536.204Z" fill="#8991DC"/>
<path fill-rule="evenodd" clip-rule="evenodd" d="M681.168 536.204C682.238 535.725 683.513 536.203 683.916 537.303C684.74 539.556 685.923 543.132 685.923 545.115C685.923 548.159 684.911 554 684.911 554C681.386 554 621.553 554 621.553 554C621.553 554 619.083 545.819 624.404 545.167C629.725 544.515 633.245 543.989 633.245 543.989L662.808 530.784C663.323 530.554 663.926 530.795 664.14 531.317L666.082 536.035C666.082 536.035 671.007 538.338 674.087 538.338C676.039 538.338 679.15 537.106 681.168 536.204Z" fill="#8991DC"/>
<path fill-rule="evenodd" clip-rule="evenodd" d="M748.83 285L730.857 355.547H675.959L684.144 285H748.83Z" fill="#69A1AC"/>
<path fill-rule="evenodd" clip-rule="evenodd" d="M758.94 285C767.811 311.642 762.31 355.547 762.31 355.547H706.289L690.884 285H758.94Z" fill="#89C5CC"/>
<path fill-rule="evenodd" clip-rule="evenodd" d="M820.067 320.484C815.873 314.331 787.604 231.535 787.604 231.535L763.222 235.055C763.222 235.055 803.759 321.272 806.075 325.282C809.084 330.491 806.419 339.048 804.612 344.851C804.333 345.748 804.074 346.58 803.86 347.323C807.652 348.415 809.095 346.248 810.616 343.963C812.335 341.383 814.153 338.652 819.569 340.299C821.661 340.935 823.671 341.752 825.635 342.55C832.418 345.308 838.65 347.841 845.81 341.912C846.945 340.972 847.902 337.899 844.295 336.109C835.31 331.651 822.117 323.491 820.067 320.484ZM609.951 316.205L637.19 281.038L650.217 297.669L620.114 321.594C613.704 335.69 609.657 341.96 607.973 340.404C606.553 339.092 606.88 337.39 607.181 335.822C607.416 334.601 607.635 333.46 607 332.65C605.551 330.8 599.124 332.879 593.11 335.113C587.096 337.347 588.104 334.102 589.2 332.329C594.401 326.78 601.318 321.405 609.951 316.205Z" fill="#D4A181"/>
<path fill-rule="evenodd" clip-rule="evenodd" d="M703.56 172.904L693.695 172.608C686.045 228.289 613.204 275.748 611.231 296.438C610.507 304.026 616.321 306.993 613.901 309.613L627.709 317.003C629.482 314.235 634.642 318.117 643.647 313.629C652.653 309.141 712.471 236.309 703.56 172.904Z" fill="#DB2721"/>
<path fill-rule="evenodd" clip-rule="evenodd" d="M719.611 159.212C721.772 158.753 723.896 160.133 724.356 162.294L725.83 169.225C745.917 180.604 796.7 215.904 819.296 291.729C821.67 299.694 820.058 304.366 818.771 308.098C817.89 310.652 817.16 312.766 817.962 315.194L802.209 322.012C801.951 320.172 799.689 319.063 796.77 317.632C792.527 315.551 786.896 312.789 784.019 306.112C781.292 299.782 777.497 291.931 773.06 283.227C774.464 295.383 773.729 306.847 770.012 316.779C760.74 341.557 684.91 326.469 674.058 304.046C668.267 292.08 672.506 280.755 678.113 265.778C685.23 246.765 694.55 221.867 688.356 182.3L685.841 170.475C685.381 168.314 686.76 166.191 688.921 165.732L719.611 159.212Z" fill="#FF4133"/>
<defs>
<clipPath id="clip0_4_2929">
<rect width="837.341" height="201.309" fill="white" transform="translate(49.3297 307.985)"/>
</clipPath>
<clipPath id="clip1_4_2929">
<rect width="159" height="302" fill="white" transform="translate(236 29)"/>
</clipPath>
<clipPath id="clip2_4_2929">
<rect width="131" height="204" fill="white" transform="translate(250 57)"/>
</clipPath>
<clipPath id="clip3_4_2929">
<rect width="131" height="54" fill="white" transform="translate(250 57)"/>
</clipPath>
<clipPath id="clip4_4_2929">
<rect width="73" height="21.6" fill="white" transform="translate(289 73.2)"/>
</clipPath>
<clipPath id="clip5_4_2929">
<rect width="131" height="42" fill="white" transform="translate(250 119)"/>
</clipPath>
<clipPath id="clip6_4_2929">
<rect width="73" height="16.8" fill="white" transform="translate(289 131.6)"/>
</clipPath>
<clipPath id="clip7_4_2929">
<rect width="131" height="42" fill="white" transform="translate(250 169)"/>
</clipPath>
<clipPath id="clip8_4_2929">
<rect width="73" height="16.8" fill="white" transform="translate(289 181.6)"/>
</clipPath>
<clipPath id="clip9_4_2929">
<rect width="131" height="42" fill="white" transform="translate(250 219)"/>
</clipPath>
<clipPath id="clip10_4_2929">
<rect width="73" height="16.8" fill="white" transform="translate(289 231.6)"/>
</clipPath>
<clipPath id="clip11_4_2929">
<rect width="207" height="302" fill="white" transform="translate(254 55)"/>
</clipPath>
<clipPath id="clip12_4_2929">
<rect width="131" height="204" fill="white" transform="translate(316 83)"/>
</clipPath>
<clipPath id="clip13_4_2929">
<rect width="131" height="54" fill="white" transform="translate(316 83)"/>
</clipPath>
<clipPath id="clip14_4_2929">
<rect width="73" height="21.6" fill="white" transform="translate(325 99.2)"/>
</clipPath>
<clipPath id="clip15_4_2929">
<rect width="131" height="42" fill="white" transform="translate(316 145)"/>
</clipPath>
<clipPath id="clip16_4_2929">
<rect width="73" height="16.8" fill="white" transform="translate(355 157.6)"/>
</clipPath>
<clipPath id="clip17_4_2929">
<rect width="131" height="42" fill="white" transform="translate(316 195)"/>
</clipPath>
<clipPath id="clip18_4_2929">
<rect width="73" height="16.8" fill="white" transform="translate(325 207.6)"/>
</clipPath>
<clipPath id="clip19_4_2929">
<rect width="131" height="42" fill="white" transform="translate(316 245)"/>
</clipPath>
<clipPath id="clip20_4_2929">
<rect width="73" height="16.8" fill="white" transform="translate(355 257.6)"/>
</clipPath>
<clipPath id="clip21_4_2929">
<rect width="335" height="346" fill="white" transform="translate(368 80)"/>
</clipPath>
<clipPath id="clip22_4_2929">
<rect width="70" height="194" fill="white" transform="translate(617 212)"/>
</clipPath>
<clipPath id="clip23_4_2929">
<rect width="34" height="158" fill="white" transform="translate(635 230)"/>
</clipPath>
<clipPath id="clip24_4_2929">
<rect width="225" height="282" fill="white" transform="translate(384 124)"/>
</clipPath>
<clipPath id="clip25_4_2929">
<rect width="225" height="47" fill="white" transform="translate(384 124)"/>
</clipPath>
<clipPath id="clip26_4_2929">
<rect width="167" height="18.8" fill="white" transform="translate(393 138.1)"/>
</clipPath>
<clipPath id="clip27_4_2929">
<rect width="225" height="39" fill="white" transform="translate(384 179)"/>
</clipPath>
<clipPath id="clip28_4_2929">
<rect width="167" height="15.6" fill="white" transform="translate(393 190.7)"/>
</clipPath>
<clipPath id="clip29_4_2929">
<rect width="225" height="39" fill="white" transform="translate(384 226)"/>
</clipPath>
<clipPath id="clip30_4_2929">
<rect width="167" height="15.6" fill="white" transform="translate(393 237.7)"/>
</clipPath>
<clipPath id="clip31_4_2929">
<rect width="225" height="39" fill="white" transform="translate(384 367)"/>
</clipPath>
<clipPath id="clip32_4_2929">
<rect width="167" height="15.6" fill="white" transform="translate(393 378.7)"/>
</clipPath>
<clipPath id="clip33_4_2929">
<rect width="225" height="39" fill="white" transform="translate(384 320)"/>
</clipPath>
<clipPath id="clip34_4_2929">
<rect width="167" height="15.6" fill="white" transform="translate(393 331.7)"/>
</clipPath>
<clipPath id="clip35_4_2929">
<rect width="225" height="39" fill="white" transform="translate(384 273)"/>
</clipPath>
<clipPath id="clip36_4_2929">
<rect width="167" height="15.6" fill="white" transform="translate(393 284.7)"/>
</clipPath>
</defs>
</svg>
