<?xml version="1.0" encoding="utf-8"?><svg xml:space="preserve" viewBox="0 0 100 100" y="0" x="0" xmlns="http://www.w3.org/2000/svg" id="圖層_1" version="1.1" width="200px" height="200px" xmlns:xlink="http://www.w3.org/1999/xlink" style="width:100%;height:100%;background-size:initial;background-repeat-y:initial;background-repeat-x:initial;background-position-y:initial;background-position-x:initial;background-origin:initial;background-color:initial;background-clip:initial;background-attachment:initial;animation-play-state:paused" ><g class="ldl-scale" style="transform-origin:50% 50%;transform:rotate(0deg) scale(0.8, 0.8);animation-play-state:paused" ><circle fill="#333" r="40" cy="50" cx="50" style="fill:rgb(64, 170, 150);animation-play-state:paused" ></circle>
<g style="animation-play-state:paused" ><path fill="#fff" d="M63.716 56.677a13.049 13.049 0 0 0-2.125-3.172c-1.627-1.789-2.563-4.091-2.518-6.509l.003-.336c0-6.67-3.65-10.75-8.33-11.143-.134-.738-.339-1.471-.52-2.096-.43-1.49-1.097-2.916-2.015-4.169C46.653 27.125 44.34 26.5 41.752 26c-.716.757-.907 1.619-.235 2.634 2.272.473 4.355.757 5.893 2.495a12.255 12.255 0 0 1 2.466 4.356c-4.976.069-9.027 4.212-9.027 11.175 0 .149.002.297.005.444.059 2.396-.892 4.675-2.495 6.457-2.036 2.265-3.255 5.136-3.255 8.262 0 2.441.746 4.607 2.041 6.412C39.732 71.84 44.519 74 50 74c8.227 0 14.896-4.86 14.896-12.177a11.93 11.93 0 0 0-1.18-5.146z" style="fill:rgb(163, 210, 202);animation-play-state:paused" ></path>
<path fill="#fff" d="M51.404 32.951c.543-.174 1.13-.085 1.701-.062 2.771.11 5.533-1.552 6.732-4.051.295-.614.504-1.301.39-1.973-3.249-.634-6.797.614-8.934 3.142-.964 1.14-1.368 2.801-.762 4.225-.151-.552.329-1.107.873-1.281z" style="fill:rgb(163, 210, 202);animation-play-state:paused" ></path></g>
<metadata xmlns:d="https://loading.io/stock/" style="animation-play-state:paused" ><d:name style="animation-play-state:paused" >pear</d:name>


<d:tags style="animation-play-state:paused" >pear,guava,fruit</d:tags>


<d:license style="animation-play-state:paused" >by</d:license>


<d:slug style="animation-play-state:paused" >76l8is</d:slug></metadata></g><!-- generated by https://loading.io/ --></svg>