<svg width="1024" height="1024" viewBox="0 0 1024 1024" fill="none" xmlns="http://www.w3.org/2000/svg">
<path d="M795.999 921.844C887.977 846.944 950.532 759.081 935.869 674.098C921.206 589.116 907.068 563.189 878.267 525.739C849.466 488.289 834.235 489.413 795.999 435.223C766.7 407.166 768.663 362.351 749.918 276.781C746.219 253.053 740.376 235.515 731.996 220.238C686.185 229.017 635.45 218.659 571.352 193.239C575.233 162.788 584.143 136.916 596.835 115.231C589.131 114.892 580.695 114.98 571.352 115.458C532.729 116.624 511.436 119.416 476.309 141.385C413.571 202.451 403.311 235.223 378.386 294.066C360.431 366.647 362.266 417.206 300.624 464.031C258.645 506.791 242.308 518.436 218.606 576.153C181.343 658.437 195.565 728.022 218.606 791.399C241.646 854.776 319.645 925.891 440.308 976.579C583.697 1014.02 704.022 996.744 795.999 921.844Z" fill="#69A88D"/>
<path d="M919.843 31.6884C902.563 0 661.329 5.04398 596.835 115.231C637.618 117.022 657.907 104.593 683.676 135.396C704.974 157.201 720.764 199.766 731.996 220.238C796.523 207.873 937.123 63.3768 919.843 31.6884Z" fill="#176560"/>
<path d="M571.352 193.239C635.45 218.659 686.185 229.017 731.996 220.238C720.764 199.766 704.974 157.201 683.676 135.396C657.907 104.593 637.618 117.022 596.835 115.231C584.143 136.916 575.233 162.788 571.352 193.239Z" fill="#176560"/>
<path d="M540.637 24.8282C540.031 22.7041 537.817 21.474 535.693 22.0807C533.568 22.6875 532.338 24.9013 532.945 27.0255L540.637 24.8282ZM579.027 188.348C579.633 190.472 581.847 191.702 583.971 191.096C586.096 190.489 587.326 188.275 586.719 186.151L579.027 188.348ZM532.945 27.0255L579.027 188.348L586.719 186.151L540.637 24.8282L532.945 27.0255Z" fill="#176560"/>
<ellipse cx="696.636" cy="623.685" rx="12.9604" ry="12.9634" fill="#176560"/>
<ellipse cx="754.238" cy="649.612" rx="12.9604" ry="12.9634" fill="#176560"/>
<ellipse cx="696.636" cy="689.943" rx="12.9604" ry="12.9634" fill="#176560"/>
<path d="M225.996 953.376C150.918 907.327 95.7308 848.391 96.8694 783.237C98.008 718.083 105.365 697.158 122.069 666.024C138.772 634.889 149.944 634.078 171.621 589.4C189.736 565.237 183.304 531.93 187.338 465.894C187.37 447.745 189.647 433.993 194.018 421.659C228.224 423.257 263.863 410.008 307.511 384.044C301.294 361.689 291.941 343.304 280.312 328.46C285.863 327.371 291.991 326.522 298.82 325.867C326.963 322.551 342.718 322.33 370.649 334.954C422.975 373.825 434.078 397.225 458.73 438.535C479.863 490.876 484.181 528.892 534.121 557.231C569.345 584.662 582.495 591.6 606.135 632.2C642.355 689.706 639.815 743.295 630.186 793.197C620.557 843.1 571.934 904.749 490.084 955.746C390.272 999.3 301.074 999.425 225.996 953.376Z" fill="#176560"/>
<path d="M56.0005 334.964C64.9925 309.388 221.225 253.038 280.312 328.46C250.934 334.222 234.83 327.126 219.583 352.96C206.572 371.578 199.877 405.128 194.018 421.659C145.837 419.406 47.0086 360.54 56.0005 334.964Z" fill="#69A88D"/>
<path d="M307.511 384.044C263.863 410.008 228.224 423.257 194.018 421.659C199.877 405.128 206.572 371.578 219.583 352.96C234.83 327.126 250.934 334.222 280.312 328.46C291.941 343.304 301.294 361.689 307.511 384.044Z" fill="#69A88D"/>
<path d="M289.605 281.111C289.473 278.906 291.154 277.011 293.359 276.879C295.564 276.747 297.458 278.427 297.59 280.633L289.605 281.111ZM303.069 372.366C303.2 374.572 301.52 376.466 299.314 376.599C297.109 376.731 295.215 375.05 295.083 372.845L303.069 372.366ZM297.59 280.633L303.069 372.366L295.083 372.845L289.605 281.111L297.59 280.633Z" fill="#69A88D"/>
<ellipse rx="9.50419" ry="9.80372" transform="matrix(-0.989007 0.147867 0.147752 0.989024 534.906 698.622)" fill="#69A88D"/>
<ellipse rx="9.50421" ry="9.80375" transform="matrix(-0.989007 0.147867 0.147752 0.989024 476.76 777.22)" fill="#69A88D"/>
<ellipse rx="9.50421" ry="9.80375" transform="matrix(-0.989007 0.147867 0.147752 0.989024 526.887 781.378)" fill="#69A88D"/>
<ellipse rx="9.50421" ry="9.80375" transform="matrix(-0.989007 0.147867 0.147752 0.989024 486.482 705.861)" fill="#69A88D"/>
</svg>
